<?xml version="1.0" standalone="no"?>
<!DOCTYPE svg PUBLIC "-//W3C//DTD SVG 20010904//EN"
 "http://www.w3.org/TR/2001/REC-SVG-20010904/DTD/svg10.dtd">
<svg version="1.0" xmlns="http://www.w3.org/2000/svg"
 width="644.000000pt" height="644.000000pt" viewBox="0 0 644.000000 644.000000"
 preserveAspectRatio="xMidYMid meet">
<metadata>
Created by potrace 1.14, written by Peter Selinger 2001-2017
</metadata>
<g transform="translate(0.000000,644.000000) scale(0.100000,-0.100000)"
fill="#000000" stroke="none">
<path d="M700 5651 c-124 -39 -154 -56 -242 -142 -50 -49 -84 -92 -98 -123
-11 -27 -19 -51 -16 -53 2 -2 23 15 47 37 51 48 75 60 128 60 66 0 117 -49
253 -240 103 -145 200 -244 255 -260 76 -23 121 -8 205 68 150 136 217 185
303 223 72 32 75 43 24 96 -183 190 -347 292 -542 337 -89 21 -244 19 -317 -3z"/>
<path d="M4370 5656 c-120 -27 -247 -87 -372 -176 -65 -46 -208 -192 -208
-212 0 -12 23 -29 68 -52 84 -42 163 -101 270 -199 105 -97 159 -115 240 -82
56 24 103 74 242 261 138 185 177 223 239 231 57 8 80 -1 130 -47 24 -22 46
-39 48 -36 15 15 -31 90 -97 157 -82 84 -154 126 -258 153 -74 19 -221 20
-302 2z"/>
<path d="M2752 5354 c-27 -19 -27 -29 -2 -105 11 -33 30 -112 42 -177 20 -110
22 -148 22 -629 1 -392 4 -515 13 -524 7 -7 16 -9 20 -5 4 4 11 82 15 174 4
92 12 244 18 337 24 395 5 679 -58 873 -20 62 -39 78 -70 56z"/>
<path d="M5066 5228 c-11 -35 -17 -77 -26 -188 -8 -102 -31 -251 -56 -362 -5
-23 -1 -30 34 -52 22 -14 43 -30 47 -36 12 -19 44 -11 49 13 10 50 26 220 26
274 0 167 -54 418 -74 351z"/>
<path d="M286 5218 c-23 -80 -29 -119 -37 -230 -20 -289 30 -513 142 -628 64
-66 184 -112 205 -79 3 6 -9 27 -29 47 -19 21 -43 53 -52 72 -10 19 -21 37
-24 40 -22 18 -78 177 -105 295 -20 91 -43 257 -51 369 -6 89 -17 126 -36 126
-5 0 -11 -6 -13 -12z"/>
<path d="M2110 5213 c-131 -20 -283 -71 -410 -139 -86 -46 -354 -226 -354
-239 0 -15 118 -34 214 -34 87 0 316 21 425 39 122 21 303 69 390 105 17 6 46
18 65 26 19 7 57 26 83 41 26 15 50 28 54 28 13 0 103 83 103 95 0 14 -17 20
-125 50 -109 29 -342 44 -445 28z"/>
<path d="M3105 5200 c-22 -5 -65 -12 -95 -17 -65 -11 -100 -28 -100 -49 0 -22
78 -103 135 -139 108 -69 268 -93 498 -76 80 6 198 11 261 11 115 0 133 6 104
33 -104 99 -227 176 -339 213 -77 25 -99 28 -254 30 -93 1 -188 -1 -210 -6z"/>
<path d="M3775 4775 c-55 -7 -155 -22 -223 -34 -171 -29 -274 -35 -362 -21
-141 22 -180 24 -180 9 0 -25 14 -37 65 -57 161 -63 362 -186 463 -284 310
-297 577 -427 964 -469 121 -13 448 -7 528 11 143 31 199 89 133 139 -16 12
-32 24 -38 29 -152 119 -352 237 -540 316 -154 66 -261 96 -433 122 -153 23
-125 38 62 31 100 -3 165 -11 226 -26 203 -53 412 -150 620 -288 74 -49 140
-92 146 -96 6 -3 18 -1 27 6 34 25 -20 180 -99 289 -84 114 -232 207 -424 266
-198 61 -669 90 -935 57z"/>
<path d="M2337 4719 c-37 -5 -81 -16 -97 -24 -16 -8 -36 -15 -45 -15 -8 0 -15
-4 -15 -9 0 -5 -10 -11 -23 -15 -19 -4 -63 -43 -119 -106 -27 -29 -118 -188
-118 -205 0 -13 6 -16 23 -12 12 3 103 20 202 37 184 31 320 62 365 82 102 45
141 75 176 134 30 51 31 89 3 104 -19 11 -233 41 -269 38 -8 0 -46 -4 -83 -9z"/>
<path d="M5561 4478 c-17 -35 -55 -101 -86 -147 -30 -46 -55 -86 -55 -88 0 -3
-33 -48 -74 -101 -168 -219 -390 -442 -591 -593 -39 -29 -71 -56 -73 -61 -2
-4 -10 -8 -18 -8 -8 0 -14 -4 -14 -9 0 -4 -18 -21 -41 -35 -70 -47 -300 -236
-377 -310 -202 -194 -294 -352 -392 -671 -5 -16 -12 -49 -16 -73 -4 -23 -11
-45 -15 -48 -5 -3 -9 -17 -9 -31 0 -15 -6 -49 -14 -77 -8 -28 -22 -87 -31
-131 -9 -44 -21 -98 -26 -120 -19 -88 -42 -263 -36 -279 17 -45 41 2 57 114 6
41 17 109 26 150 8 41 19 93 23 115 4 22 18 78 31 125 12 47 26 101 30 120 7
32 31 107 75 230 22 62 108 231 147 288 103 153 302 345 480 463 462 308 803
627 1014 949 101 154 137 240 101 240 -8 0 -24 11 -37 25 -13 14 -29 25 -36
25 -7 0 -26 -28 -43 -62z"/>
<path d="M2982 4368 c-18 -18 -14 -122 7 -183 46 -131 104 -167 311 -195 105
-14 170 -26 203 -39 47 -18 49 22 5 119 -86 190 -256 310 -439 310 -45 0 -80
-5 -87 -12z"/>
<path d="M2546 4265 c-22 -8 -51 -23 -65 -33 -35 -26 -77 -100 -86 -151 -4
-22 -11 -43 -16 -47 -5 -3 -9 -13 -9 -23 0 -11 -9 -38 -20 -62 -30 -66 -27
-82 13 -74 108 21 241 95 291 160 48 63 77 139 74 192 l-3 48 -70 2 c-41 2
-86 -3 -109 -12z"/>
<path d="M1354 4178 c28 -255 196 -390 486 -392 64 -1 65 -1 68 28 7 61 -74
189 -157 250 -61 44 -143 88 -216 116 -133 51 -160 60 -174 60 -11 0 -12 -12
-7 -62z"/>
<path d="M893 4139 c4 -33 10 -137 13 -232 9 -251 40 -360 127 -448 96 -95
208 -114 362 -59 148 52 203 66 223 54 9 -6 24 -32 33 -57 24 -72 76 -144 123
-172 24 -14 70 -29 104 -33 34 -5 64 -11 67 -14 3 -3 12 -34 21 -69 46 -200
119 -367 176 -403 28 -17 30 -1 9 71 -19 63 -21 100 -23 411 l-3 342 -25 24
c-23 22 -38 25 -170 36 -228 18 -418 45 -499 71 -110 36 -153 73 -280 243 -54
73 -124 164 -156 202 -97 116 -111 120 -102 33z m868 -684 c15 -92 135 -130
216 -68 36 28 43 17 17 -26 -27 -45 -74 -71 -130 -71 -80 1 -120 46 -131 150
-5 51 -4 62 8 58 8 -3 17 -22 20 -43z"/>
<path d="M5386 3877 c-7 -19 -17 -45 -20 -58 -4 -13 -11 -33 -16 -44 -33 -80
-45 -166 -44 -325 0 -169 0 -169 54 -351 13 -45 119 -253 131 -257 5 -2 9 -8
9 -13 0 -6 29 -54 64 -107 93 -142 146 -273 161 -400 9 -81 24 -79 83 8 53 78
147 270 171 350 37 122 43 156 48 297 7 191 -6 259 -84 433 -65 144 -244 358
-377 449 -74 51 -90 34 -30 -34 63 -72 118 -167 174 -300 41 -97 69 -251 77
-417 5 -119 4 -140 -8 -136 -8 3 -17 26 -22 54 -13 82 -59 291 -79 354 -31 99
-94 261 -121 310 -64 118 -131 220 -143 220 -8 0 -20 -15 -28 -33z"/>
<path d="M663 3831 c-15 -24 -66 -157 -89 -236 -15 -46 -19 -94 -19 -210 0
-131 3 -159 24 -220 30 -89 78 -178 145 -269 55 -74 191 -216 207 -216 14 0
11 63 -10 195 -23 150 -48 225 -115 345 -60 108 -101 213 -111 284 -4 26 -6
115 -6 197 0 82 -3 149 -7 149 -4 0 -13 -9 -19 -19z"/>
<path d="M3760 3800 c-107 -20 -135 -30 -232 -78 -57 -29 -141 -76 -187 -107
-46 -30 -88 -55 -93 -55 -4 0 -8 -4 -8 -8 0 -5 -8 -13 -19 -18 -10 -5 -32 -19
-47 -32 -107 -84 -259 -192 -300 -212 -65 -31 -144 -59 -169 -60 -43 0 -59
-44 -27 -72 51 -46 280 -137 397 -158 171 -31 386 -30 525 3 163 38 248 80
410 203 172 130 280 189 399 219 47 11 86 26 88 32 12 34 -254 103 -394 103
-102 0 -230 -36 -363 -101 -244 -120 -321 -148 -255 -94 17 13 33 24 36 25 11
0 237 136 272 163 76 57 259 93 397 77 132 -15 209 -38 289 -88 66 -41 98 -54
106 -42 19 31 -285 215 -424 256 -128 37 -171 45 -261 49 -52 2 -115 0 -140
-5z"/>
<path d="M4821 3371 c-8 -14 -4 -35 15 -82 47 -120 66 -238 67 -419 0 -175 -9
-271 -24 -235 -4 11 -8 48 -8 83 -1 68 -24 226 -45 306 -32 121 -114 299 -142
310 -28 11 -33 7 -67 -46 -139 -218 -192 -387 -185 -584 7 -183 51 -297 199
-519 113 -171 131 -206 137 -282 4 -50 8 -63 22 -63 9 0 24 15 33 33 9 17 31
57 48 87 42 76 139 266 139 275 0 4 6 21 14 38 13 31 47 122 79 217 14 43 33
119 56 225 21 100 33 231 28 302 -7 98 -49 175 -136 253 -62 56 -171 120 -204
120 -9 0 -21 -8 -26 -19z"/>
<path d="M1620 2656 c-30 -12 -82 -38 -115 -56 -176 -99 -263 -130 -361 -130
-62 0 -56 -22 16 -62 87 -48 158 -69 257 -75 135 -9 272 26 368 92 88 60 175
162 175 205 0 35 -55 50 -177 49 -87 -1 -119 -5 -163 -23z"/>
<path d="M3265 2639 c-123 -41 -202 -94 -374 -252 -50 -46 -103 -82 -167 -114
-52 -25 -94 -52 -94 -60 0 -24 74 -62 153 -78 114 -23 279 -30 378 -16 136 19
197 47 309 142 97 81 208 139 269 139 44 0 57 11 42 37 -25 48 -299 72 -406
36 -27 -9 -86 -40 -130 -69 -43 -29 -81 -51 -84 -48 -3 2 17 27 44 54 49 50
138 100 210 118 116 30 258 22 338 -17 23 -11 43 -18 45 -16 18 18 -102 89
-213 127 -68 23 -96 27 -185 27 -58 0 -118 -5 -135 -10z"/>
<path d="M3995 2430 c-50 -7 -49 -23 8 -70 58 -47 122 -115 168 -178 54 -72
119 -192 119 -221 0 -22 -2 -20 -25 13 -14 20 -25 39 -25 42 0 7 -87 113 -135
164 -95 103 -165 160 -196 160 l-29 0 0 -97 c0 -87 13 -161 41 -228 53 -130
117 -232 184 -294 24 -22 76 -61 116 -86 83 -54 155 -119 194 -175 36 -52 60
-52 69 -2 3 20 6 127 6 238 0 215 -14 315 -60 437 -24 64 -84 160 -121 193
-85 76 -210 118 -314 104z"/>
<path d="M1870 2319 c-87 -44 -184 -132 -348 -317 -41 -45 -91 -92 -113 -105
-21 -12 -37 -26 -36 -31 11 -34 146 -45 235 -20 75 20 96 30 167 77 75 49 135
121 179 212 34 70 64 195 51 214 -12 20 -52 11 -135 -30z"/>
<path d="M2337 2013 c-12 -12 -7 -72 9 -113 29 -73 158 -160 294 -199 127 -37
137 -42 184 -91 26 -28 51 -50 54 -50 4 1 22 21 40 45 36 49 67 69 127 80 53
9 172 65 213 100 44 37 74 98 76 156 2 71 -12 77 -69 30 -51 -42 -138 -79
-220 -93 -90 -17 -316 -21 -375 -8 -137 30 -209 61 -269 115 -38 35 -52 41
-64 28z"/>
<path d="M3931 1663 c-38 -151 -141 -285 -283 -367 -52 -29 -58 -40 -29 -56
50 -26 253 54 331 132 52 52 67 82 76 146 10 78 -37 192 -79 192 -3 0 -10 -21
-16 -47z"/>
<path d="M1754 1643 c-51 -111 -16 -230 89 -301 105 -73 228 -116 286 -102 40
9 35 27 -16 52 -26 12 -85 59 -129 103 -85 84 -144 184 -159 268 -11 58 -39
50 -71 -20z"/>
<path d="M2767 1376 c-150 -169 -363 -247 -596 -216 -55 7 -104 10 -107 7 -23
-23 66 -92 153 -119 96 -30 195 -22 354 29 14 4 56 26 93 47 109 65 176 164
176 263 0 29 -4 53 -8 53 -5 0 -34 -29 -65 -64z"/>
<path d="M2910 1396 c-12 -32 9 -120 42 -171 66 -102 182 -171 341 -201 130
-25 271 6 352 78 55 48 43 72 -22 47 -15 -6 -84 -10 -153 -10 -100 0 -137 4
-185 21 -138 48 -233 111 -304 204 -24 31 -47 56 -52 56 -5 0 -14 -11 -19 -24z"/>
<path d="M3330 853 c-72 -39 -189 -82 -295 -108 -105 -26 -355 -24 -455 3
-102 28 -136 40 -195 67 -75 34 -85 36 -91 20 -11 -27 45 -98 117 -150 102
-76 191 -108 357 -131 139 -18 239 -7 352 39 110 45 185 104 267 212 69 90 50
106 -57 48z"/>
</g>
</svg>
